<mxfile host="Electron" modified="2023-11-18T15:17:04.932Z" agent="Mozilla/5.0 (Windows NT 10.0; Win64; x64) AppleWebKit/537.36 (KHTML, like Gecko) draw.io/22.1.2 Chrome/114.0.5735.289 Electron/25.9.4 Safari/537.36" etag="ozKLCBcNZoD6V_f_R0HH" version="22.1.2" type="device">
  <diagram name="Trang-1" id="QBY6U-QuMxyAhen_JprV">
    <mxGraphModel dx="1036" dy="606" grid="0" gridSize="10" guides="1" tooltips="1" connect="1" arrows="1" fold="1" page="1" pageScale="1" pageWidth="827" pageHeight="1169" math="0" shadow="0">
      <root>
        <mxCell id="0" />
        <mxCell id="1" parent="0" />
        <mxCell id="EKhqU0VaLZhSVrZGLdmB-1" value="&lt;font style=&quot;font-size: 24px;&quot;&gt;Quản lý sân bóng&lt;/font&gt;" style="rounded=0;whiteSpace=wrap;html=1;" parent="1" vertex="1">
          <mxGeometry x="280" y="20" width="270" height="40" as="geometry" />
        </mxCell>
        <mxCell id="EKhqU0VaLZhSVrZGLdmB-2" value="Quản lý chung" style="rounded=0;whiteSpace=wrap;html=1;" parent="1" vertex="1">
          <mxGeometry x="30" y="200" width="120" height="60" as="geometry" />
        </mxCell>
        <mxCell id="EKhqU0VaLZhSVrZGLdmB-3" value="Quản lý tài chính&lt;br&gt;" style="rounded=0;whiteSpace=wrap;html=1;" parent="1" vertex="1">
          <mxGeometry x="500" y="200" width="120" height="60" as="geometry" />
        </mxCell>
        <mxCell id="EKhqU0VaLZhSVrZGLdmB-4" value="Quản lý chất lượng sân" style="rounded=0;whiteSpace=wrap;html=1;" parent="1" vertex="1">
          <mxGeometry x="680" y="200" width="120" height="60" as="geometry" />
        </mxCell>
        <mxCell id="EKhqU0VaLZhSVrZGLdmB-5" value="Quản lý khách hàng" style="rounded=0;whiteSpace=wrap;html=1;" parent="1" vertex="1">
          <mxGeometry x="190" y="200" width="120" height="60" as="geometry" />
        </mxCell>
        <mxCell id="EKhqU0VaLZhSVrZGLdmB-6" value="Quản lý đặt sân" style="rounded=0;whiteSpace=wrap;html=1;" parent="1" vertex="1">
          <mxGeometry x="30" y="300" width="120" height="60" as="geometry" />
        </mxCell>
        <mxCell id="EKhqU0VaLZhSVrZGLdmB-7" value="Quản lý thông tin khách hàng" style="rounded=0;whiteSpace=wrap;html=1;" parent="1" vertex="1">
          <mxGeometry x="190" y="300" width="120" height="60" as="geometry" />
        </mxCell>
        <mxCell id="EKhqU0VaLZhSVrZGLdmB-8" value="Quản lý cơ sở" style="rounded=0;whiteSpace=wrap;html=1;" parent="1" vertex="1">
          <mxGeometry x="680" y="400" width="120" height="60" as="geometry" />
        </mxCell>
        <mxCell id="EKhqU0VaLZhSVrZGLdmB-9" value="Quản lý dịch vụ" style="rounded=0;whiteSpace=wrap;html=1;" parent="1" vertex="1">
          <mxGeometry x="680" y="300" width="120" height="60" as="geometry" />
        </mxCell>
        <mxCell id="EKhqU0VaLZhSVrZGLdmB-10" value="Quản lý nhà cung cấp" style="rounded=0;whiteSpace=wrap;html=1;" parent="1" vertex="1">
          <mxGeometry x="30" y="400" width="120" height="60" as="geometry" />
        </mxCell>
        <mxCell id="EKhqU0VaLZhSVrZGLdmB-11" value="Thanh toán hóa đơn" style="rounded=0;whiteSpace=wrap;html=1;" parent="1" vertex="1">
          <mxGeometry x="500" y="300" width="120" height="60" as="geometry" />
        </mxCell>
        <mxCell id="EKhqU0VaLZhSVrZGLdmB-12" value="Xử lý yêu cầu khách hàng" style="rounded=0;whiteSpace=wrap;html=1;" parent="1" vertex="1">
          <mxGeometry x="190" y="400" width="120" height="60" as="geometry" />
        </mxCell>
        <mxCell id="EKhqU0VaLZhSVrZGLdmB-21" value="" style="endArrow=none;html=1;rounded=0;entryX=0.441;entryY=0.982;entryDx=0;entryDy=0;entryPerimeter=0;" parent="1" target="EKhqU0VaLZhSVrZGLdmB-1" edge="1">
          <mxGeometry width="50" height="50" relative="1" as="geometry">
            <mxPoint x="399" y="100" as="sourcePoint" />
            <mxPoint x="440" y="290" as="targetPoint" />
            <Array as="points" />
          </mxGeometry>
        </mxCell>
        <mxCell id="EKhqU0VaLZhSVrZGLdmB-22" value="" style="endArrow=none;html=1;rounded=0;" parent="1" edge="1">
          <mxGeometry width="50" height="50" relative="1" as="geometry">
            <mxPoint x="90" y="100" as="sourcePoint" />
            <mxPoint x="740" y="100" as="targetPoint" />
            <Array as="points" />
          </mxGeometry>
        </mxCell>
        <mxCell id="EKhqU0VaLZhSVrZGLdmB-23" value="" style="endArrow=none;html=1;rounded=0;exitX=0.5;exitY=0;exitDx=0;exitDy=0;" parent="1" source="EKhqU0VaLZhSVrZGLdmB-2" edge="1">
          <mxGeometry width="50" height="50" relative="1" as="geometry">
            <mxPoint x="110" y="190" as="sourcePoint" />
            <mxPoint x="90" y="100" as="targetPoint" />
          </mxGeometry>
        </mxCell>
        <mxCell id="EKhqU0VaLZhSVrZGLdmB-24" value="" style="endArrow=none;html=1;rounded=0;exitX=0.5;exitY=0;exitDx=0;exitDy=0;" parent="1" source="EKhqU0VaLZhSVrZGLdmB-5" edge="1">
          <mxGeometry width="50" height="50" relative="1" as="geometry">
            <mxPoint x="320" y="190" as="sourcePoint" />
            <mxPoint x="250" y="100" as="targetPoint" />
            <Array as="points" />
          </mxGeometry>
        </mxCell>
        <mxCell id="EKhqU0VaLZhSVrZGLdmB-25" value="" style="endArrow=none;html=1;rounded=0;exitX=0.5;exitY=0;exitDx=0;exitDy=0;" parent="1" source="EKhqU0VaLZhSVrZGLdmB-3" edge="1">
          <mxGeometry width="50" height="50" relative="1" as="geometry">
            <mxPoint x="500" y="150" as="sourcePoint" />
            <mxPoint x="560" y="100" as="targetPoint" />
          </mxGeometry>
        </mxCell>
        <mxCell id="EKhqU0VaLZhSVrZGLdmB-26" value="" style="endArrow=none;html=1;rounded=0;exitX=0.5;exitY=0;exitDx=0;exitDy=0;" parent="1" source="EKhqU0VaLZhSVrZGLdmB-4" edge="1">
          <mxGeometry width="50" height="50" relative="1" as="geometry">
            <mxPoint x="710" y="150" as="sourcePoint" />
            <mxPoint x="740" y="100" as="targetPoint" />
          </mxGeometry>
        </mxCell>
        <mxCell id="EKhqU0VaLZhSVrZGLdmB-27" value="" style="endArrow=none;html=1;rounded=0;exitX=0.5;exitY=0;exitDx=0;exitDy=0;entryX=0.5;entryY=1;entryDx=0;entryDy=0;" parent="1" source="EKhqU0VaLZhSVrZGLdmB-6" target="EKhqU0VaLZhSVrZGLdmB-2" edge="1">
          <mxGeometry width="50" height="50" relative="1" as="geometry">
            <mxPoint x="120" y="280" as="sourcePoint" />
            <mxPoint x="120" y="260" as="targetPoint" />
            <Array as="points" />
          </mxGeometry>
        </mxCell>
        <mxCell id="EKhqU0VaLZhSVrZGLdmB-28" value="" style="endArrow=none;html=1;rounded=0;exitX=0.5;exitY=0;exitDx=0;exitDy=0;entryX=0.5;entryY=1;entryDx=0;entryDy=0;" parent="1" source="EKhqU0VaLZhSVrZGLdmB-10" target="EKhqU0VaLZhSVrZGLdmB-6" edge="1">
          <mxGeometry width="50" height="50" relative="1" as="geometry">
            <mxPoint x="70" y="400" as="sourcePoint" />
            <mxPoint x="120" y="350" as="targetPoint" />
          </mxGeometry>
        </mxCell>
        <mxCell id="EKhqU0VaLZhSVrZGLdmB-29" value="Quản lý nhân viên" style="rounded=0;whiteSpace=wrap;html=1;" parent="1" vertex="1">
          <mxGeometry x="340" y="200" width="120" height="60" as="geometry" />
        </mxCell>
        <mxCell id="EKhqU0VaLZhSVrZGLdmB-30" value="Quản lý thông tin nhân viên" style="rounded=0;whiteSpace=wrap;html=1;" parent="1" vertex="1">
          <mxGeometry x="340" y="300" width="120" height="60" as="geometry" />
        </mxCell>
        <mxCell id="EKhqU0VaLZhSVrZGLdmB-31" value="" style="endArrow=none;html=1;rounded=0;exitX=0.5;exitY=0;exitDx=0;exitDy=0;" parent="1" source="EKhqU0VaLZhSVrZGLdmB-29" edge="1">
          <mxGeometry width="50" height="50" relative="1" as="geometry">
            <mxPoint x="400" y="190" as="sourcePoint" />
            <mxPoint x="400" y="100" as="targetPoint" />
          </mxGeometry>
        </mxCell>
        <mxCell id="EKhqU0VaLZhSVrZGLdmB-32" value="" style="endArrow=none;html=1;rounded=0;exitX=0.5;exitY=0;exitDx=0;exitDy=0;" parent="1" source="EKhqU0VaLZhSVrZGLdmB-7" edge="1">
          <mxGeometry width="50" height="50" relative="1" as="geometry">
            <mxPoint x="200" y="310" as="sourcePoint" />
            <mxPoint x="250" y="260" as="targetPoint" />
          </mxGeometry>
        </mxCell>
        <mxCell id="EKhqU0VaLZhSVrZGLdmB-33" value="" style="endArrow=none;html=1;rounded=0;exitX=0.5;exitY=0;exitDx=0;exitDy=0;" parent="1" source="EKhqU0VaLZhSVrZGLdmB-12" edge="1">
          <mxGeometry width="50" height="50" relative="1" as="geometry">
            <mxPoint x="200" y="410" as="sourcePoint" />
            <mxPoint x="250" y="360" as="targetPoint" />
          </mxGeometry>
        </mxCell>
        <mxCell id="EKhqU0VaLZhSVrZGLdmB-34" value="" style="endArrow=none;html=1;rounded=0;exitX=0.5;exitY=0;exitDx=0;exitDy=0;" parent="1" source="EKhqU0VaLZhSVrZGLdmB-30" edge="1">
          <mxGeometry width="50" height="50" relative="1" as="geometry">
            <mxPoint x="350" y="310" as="sourcePoint" />
            <mxPoint x="400" y="260" as="targetPoint" />
          </mxGeometry>
        </mxCell>
        <mxCell id="EKhqU0VaLZhSVrZGLdmB-35" value="" style="endArrow=none;html=1;rounded=0;exitX=0.5;exitY=0;exitDx=0;exitDy=0;" parent="1" source="EKhqU0VaLZhSVrZGLdmB-11" edge="1">
          <mxGeometry width="50" height="50" relative="1" as="geometry">
            <mxPoint x="510" y="310" as="sourcePoint" />
            <mxPoint x="560" y="260" as="targetPoint" />
          </mxGeometry>
        </mxCell>
        <mxCell id="EKhqU0VaLZhSVrZGLdmB-36" value="" style="endArrow=none;html=1;rounded=0;exitX=0.5;exitY=0;exitDx=0;exitDy=0;" parent="1" source="EKhqU0VaLZhSVrZGLdmB-9" target="EKhqU0VaLZhSVrZGLdmB-4" edge="1">
          <mxGeometry width="50" height="50" relative="1" as="geometry">
            <mxPoint x="700" y="310" as="sourcePoint" />
            <mxPoint x="750" y="260" as="targetPoint" />
          </mxGeometry>
        </mxCell>
        <mxCell id="EKhqU0VaLZhSVrZGLdmB-37" value="" style="endArrow=none;html=1;rounded=0;exitX=0.5;exitY=0;exitDx=0;exitDy=0;" parent="1" source="EKhqU0VaLZhSVrZGLdmB-8" edge="1">
          <mxGeometry width="50" height="50" relative="1" as="geometry">
            <mxPoint x="690" y="400" as="sourcePoint" />
            <mxPoint x="740" y="350" as="targetPoint" />
          </mxGeometry>
        </mxCell>
        <mxCell id="EKhqU0VaLZhSVrZGLdmB-38" value="Quản lý chi tiêu" style="rounded=0;whiteSpace=wrap;html=1;" parent="1" vertex="1">
          <mxGeometry x="500" y="400" width="120" height="60" as="geometry" />
        </mxCell>
        <mxCell id="EKhqU0VaLZhSVrZGLdmB-40" value="Quản lý sân bóng" style="ellipse;whiteSpace=wrap;html=1;" parent="1" vertex="1">
          <mxGeometry x="350" y="820" width="166" height="120" as="geometry" />
        </mxCell>
        <mxCell id="EKhqU0VaLZhSVrZGLdmB-41" value="Khách hàng" style="rounded=0;whiteSpace=wrap;html=1;" parent="1" vertex="1">
          <mxGeometry y="820" width="190" height="100" as="geometry" />
        </mxCell>
        <mxCell id="EKhqU0VaLZhSVrZGLdmB-42" value="Nhà cung cấp" style="rounded=0;whiteSpace=wrap;html=1;" parent="1" vertex="1">
          <mxGeometry x="641" y="810" width="186" height="100" as="geometry" />
        </mxCell>
        <mxCell id="EKhqU0VaLZhSVrZGLdmB-47" value="Yêu câu thuê sân" style="endArrow=classic;html=1;rounded=0;entryX=0.5;entryY=0;entryDx=0;entryDy=0;" parent="1" target="EKhqU0VaLZhSVrZGLdmB-40" edge="1">
          <mxGeometry width="50" height="50" relative="1" as="geometry">
            <mxPoint x="82" y="820" as="sourcePoint" />
            <mxPoint x="430" y="810" as="targetPoint" />
            <Array as="points">
              <mxPoint x="82" y="700" />
              <mxPoint x="430" y="700" />
            </Array>
          </mxGeometry>
        </mxCell>
        <mxCell id="EKhqU0VaLZhSVrZGLdmB-48" value="Phản hồi yên cầu dặt sân" style="endArrow=classic;html=1;rounded=0;exitX=0.221;exitY=0.932;exitDx=0;exitDy=0;exitPerimeter=0;entryX=0.636;entryY=0.99;entryDx=0;entryDy=0;entryPerimeter=0;" parent="1" source="EKhqU0VaLZhSVrZGLdmB-40" target="EKhqU0VaLZhSVrZGLdmB-41" edge="1">
          <mxGeometry width="50" height="50" relative="1" as="geometry">
            <mxPoint x="442" y="980" as="sourcePoint" />
            <mxPoint x="202" y="920" as="targetPoint" />
            <Array as="points">
              <mxPoint x="387" y="980" />
              <mxPoint x="292" y="980" />
              <mxPoint x="120" y="980" />
            </Array>
          </mxGeometry>
        </mxCell>
        <mxCell id="EKhqU0VaLZhSVrZGLdmB-49" value="Hóa đơn thanh toán" style="endArrow=classic;html=1;rounded=0;exitX=0.433;exitY=1.018;exitDx=0;exitDy=0;exitPerimeter=0;entryX=0.312;entryY=1.006;entryDx=0;entryDy=0;entryPerimeter=0;" parent="1" source="EKhqU0VaLZhSVrZGLdmB-40" target="EKhqU0VaLZhSVrZGLdmB-41" edge="1">
          <mxGeometry width="50" height="50" relative="1" as="geometry">
            <mxPoint x="402" y="1030" as="sourcePoint" />
            <mxPoint x="172" y="920" as="targetPoint" />
            <Array as="points">
              <mxPoint x="422" y="1040" />
              <mxPoint x="60" y="1040" />
            </Array>
          </mxGeometry>
        </mxCell>
        <mxCell id="EKhqU0VaLZhSVrZGLdmB-50" value="Phản hồi khách hàng" style="endArrow=classic;html=1;rounded=0;entryX=0.361;entryY=0;entryDx=0;entryDy=0;entryPerimeter=0;exitX=0.547;exitY=0.006;exitDx=0;exitDy=0;exitPerimeter=0;" parent="1" source="EKhqU0VaLZhSVrZGLdmB-41" target="EKhqU0VaLZhSVrZGLdmB-40" edge="1">
          <mxGeometry width="50" height="50" relative="1" as="geometry">
            <mxPoint x="192" y="820" as="sourcePoint" />
            <mxPoint x="242" y="770" as="targetPoint" />
            <Array as="points">
              <mxPoint x="104" y="740" />
              <mxPoint x="310" y="740" />
              <mxPoint x="410" y="740" />
            </Array>
          </mxGeometry>
        </mxCell>
        <mxCell id="EKhqU0VaLZhSVrZGLdmB-51" value="Hoá đơn thuê sân" style="endArrow=classic;html=1;rounded=0;exitX=0.631;exitY=0.005;exitDx=0;exitDy=0;exitPerimeter=0;" parent="1" source="EKhqU0VaLZhSVrZGLdmB-40" edge="1">
          <mxGeometry width="50" height="50" relative="1" as="geometry">
            <mxPoint x="452" y="830" as="sourcePoint" />
            <mxPoint x="800" y="810" as="targetPoint" />
            <Array as="points">
              <mxPoint x="460" y="700" />
              <mxPoint x="572" y="700" />
              <mxPoint x="800" y="700" />
            </Array>
          </mxGeometry>
        </mxCell>
        <mxCell id="EKhqU0VaLZhSVrZGLdmB-53" value="Phiếu báo giá" style="endArrow=classic;html=1;rounded=0;entryX=1;entryY=0;entryDx=0;entryDy=0;exitX=0.631;exitY=-0.03;exitDx=0;exitDy=0;exitPerimeter=0;" parent="1" source="EKhqU0VaLZhSVrZGLdmB-42" target="EKhqU0VaLZhSVrZGLdmB-40" edge="1">
          <mxGeometry width="50" height="50" relative="1" as="geometry">
            <mxPoint x="750" y="800" as="sourcePoint" />
            <mxPoint x="592" y="765" as="targetPoint" />
            <Array as="points">
              <mxPoint x="760" y="740" />
              <mxPoint x="492" y="740" />
            </Array>
          </mxGeometry>
        </mxCell>
        <mxCell id="EKhqU0VaLZhSVrZGLdmB-56" value="Hóa đơn thanh toán" style="endArrow=classic;html=1;rounded=0;exitX=0.716;exitY=1.005;exitDx=0;exitDy=0;exitPerimeter=0;entryX=0.82;entryY=0.986;entryDx=0;entryDy=0;entryPerimeter=0;" parent="1" source="EKhqU0VaLZhSVrZGLdmB-40" target="EKhqU0VaLZhSVrZGLdmB-42" edge="1">
          <mxGeometry width="50" height="50" relative="1" as="geometry">
            <mxPoint x="642" y="970" as="sourcePoint" />
            <mxPoint x="692" y="920" as="targetPoint" />
            <Array as="points">
              <mxPoint x="469" y="1020" />
              <mxPoint x="562" y="1020" />
              <mxPoint x="794" y="1020" />
            </Array>
          </mxGeometry>
        </mxCell>
        <mxCell id="-b7z-Soh7Xjd6beOd_jZ-1" value="Yêu cầu dịch vụ sân" style="endArrow=classic;html=1;rounded=0;entryX=0.234;entryY=0.032;entryDx=0;entryDy=0;entryPerimeter=0;exitX=0.842;exitY=0;exitDx=0;exitDy=0;exitPerimeter=0;" parent="1" source="EKhqU0VaLZhSVrZGLdmB-41" target="EKhqU0VaLZhSVrZGLdmB-40" edge="1">
          <mxGeometry width="50" height="50" relative="1" as="geometry">
            <mxPoint x="150" y="790" as="sourcePoint" />
            <mxPoint x="342.91013716151645" y="791.7735931288071" as="targetPoint" />
            <Array as="points">
              <mxPoint x="160" y="780" />
              <mxPoint x="310" y="780" />
              <mxPoint x="389" y="780" />
            </Array>
          </mxGeometry>
        </mxCell>
        <mxCell id="-b7z-Soh7Xjd6beOd_jZ-2" value="Phiếu yêu cầu thanh toán" style="endArrow=classic;html=1;rounded=0;exitX=0.842;exitY=0.99;exitDx=0;exitDy=0;exitPerimeter=0;entryX=0.05;entryY=0.765;entryDx=0;entryDy=0;entryPerimeter=0;" parent="1" source="EKhqU0VaLZhSVrZGLdmB-41" target="EKhqU0VaLZhSVrZGLdmB-40" edge="1">
          <mxGeometry width="50" height="50" relative="1" as="geometry">
            <mxPoint x="274.5" y="940" as="sourcePoint" />
            <mxPoint x="324.5" y="890" as="targetPoint" />
            <Array as="points">
              <mxPoint x="160" y="950" />
              <mxPoint x="240" y="950" />
              <mxPoint x="330" y="950" />
              <mxPoint x="360" y="950" />
            </Array>
          </mxGeometry>
        </mxCell>
        <mxCell id="-b7z-Soh7Xjd6beOd_jZ-3" value="Trả lời yêu cầu dịch vụ sân" style="endArrow=classic;html=1;rounded=0;entryX=1;entryY=0.75;entryDx=0;entryDy=0;exitX=0.002;exitY=0.645;exitDx=0;exitDy=0;exitPerimeter=0;" parent="1" source="EKhqU0VaLZhSVrZGLdmB-40" target="EKhqU0VaLZhSVrZGLdmB-41" edge="1">
          <mxGeometry width="50" height="50" relative="1" as="geometry">
            <mxPoint x="320" y="895" as="sourcePoint" />
            <mxPoint x="290" y="860" as="targetPoint" />
          </mxGeometry>
        </mxCell>
        <mxCell id="-b7z-Soh7Xjd6beOd_jZ-6" value="Hóa đơn mua hàng" style="endArrow=classic;html=1;rounded=0;exitX=0.947;exitY=0.292;exitDx=0;exitDy=0;exitPerimeter=0;entryX=0.446;entryY=-0.03;entryDx=0;entryDy=0;entryPerimeter=0;" parent="1" source="EKhqU0VaLZhSVrZGLdmB-40" target="EKhqU0VaLZhSVrZGLdmB-42" edge="1">
          <mxGeometry width="50" height="50" relative="1" as="geometry">
            <mxPoint x="520" y="800" as="sourcePoint" />
            <mxPoint x="720" y="800" as="targetPoint" />
            <Array as="points">
              <mxPoint x="518" y="780" />
              <mxPoint x="620" y="780" />
              <mxPoint x="724" y="780" />
            </Array>
          </mxGeometry>
        </mxCell>
        <mxCell id="-b7z-Soh7Xjd6beOd_jZ-7" value="Hóa đơn giao hàng" style="endArrow=classic;html=1;rounded=0;entryX=0.802;entryY=0.885;entryDx=0;entryDy=0;exitX=0.541;exitY=1.01;exitDx=0;exitDy=0;entryPerimeter=0;exitPerimeter=0;" parent="1" source="EKhqU0VaLZhSVrZGLdmB-42" target="EKhqU0VaLZhSVrZGLdmB-40" edge="1">
          <mxGeometry width="50" height="50" relative="1" as="geometry">
            <mxPoint x="734" y="960" as="sourcePoint" />
            <mxPoint x="491.6898628384836" y="972.426406871193" as="targetPoint" />
            <Array as="points">
              <mxPoint x="740" y="990" />
              <mxPoint x="483" y="990" />
            </Array>
          </mxGeometry>
        </mxCell>
        <mxCell id="-b7z-Soh7Xjd6beOd_jZ-8" value="Quản lý hoạt động nhân viên" style="rounded=0;whiteSpace=wrap;html=1;" parent="1" vertex="1">
          <mxGeometry x="340" y="400" width="120" height="60" as="geometry" />
        </mxCell>
        <mxCell id="-b7z-Soh7Xjd6beOd_jZ-9" value="" style="endArrow=none;html=1;rounded=0;exitX=0.5;exitY=0;exitDx=0;exitDy=0;" parent="1" source="-b7z-Soh7Xjd6beOd_jZ-8" edge="1">
          <mxGeometry width="50" height="50" relative="1" as="geometry">
            <mxPoint x="350" y="410" as="sourcePoint" />
            <mxPoint x="400" y="360" as="targetPoint" />
          </mxGeometry>
        </mxCell>
        <mxCell id="-b7z-Soh7Xjd6beOd_jZ-12" value="" style="endArrow=none;html=1;rounded=0;exitX=0.5;exitY=0;exitDx=0;exitDy=0;" parent="1" source="EKhqU0VaLZhSVrZGLdmB-38" edge="1">
          <mxGeometry width="50" height="50" relative="1" as="geometry">
            <mxPoint x="510" y="410" as="sourcePoint" />
            <mxPoint x="560" y="360" as="targetPoint" />
          </mxGeometry>
        </mxCell>
        <mxCell id="-b7z-Soh7Xjd6beOd_jZ-13" value="Quản lý phản hồi khách hàng" style="rounded=0;whiteSpace=wrap;html=1;" parent="1" vertex="1">
          <mxGeometry x="190" y="500" width="120" height="60" as="geometry" />
        </mxCell>
        <mxCell id="-b7z-Soh7Xjd6beOd_jZ-15" value="" style="endArrow=none;html=1;rounded=0;exitX=0.5;exitY=0;exitDx=0;exitDy=0;" parent="1" source="-b7z-Soh7Xjd6beOd_jZ-13" edge="1">
          <mxGeometry width="50" height="50" relative="1" as="geometry">
            <mxPoint x="200" y="510" as="sourcePoint" />
            <mxPoint x="250" y="460" as="targetPoint" />
          </mxGeometry>
        </mxCell>
      </root>
    </mxGraphModel>
  </diagram>
</mxfile>
